<svg width="11" height="11" viewBox="0 0 11 11" fill="none" xmlns="http://www.w3.org/2000/svg">
<path d="M10.322 5.22873C10.1719 5.22873 10.0279 5.28839 9.92174 5.39458C9.81558 5.50077 9.75593 5.6448 9.75593 5.79498V9.19248C9.75593 9.34266 9.69629 9.48669 9.59013 9.59288C9.48396 9.69907 9.33997 9.75873 9.18983 9.75873H2.39656C2.24642 9.75873 2.10243 9.69907 1.99626 9.59288C1.8901 9.48669 1.83045 9.34266 1.83045 9.19248V2.39748C1.83045 2.2473 1.8901 2.10327 1.99626 1.99708C2.10243 1.89089 2.24642 1.83123 2.39656 1.83123H5.79319C5.94333 1.83123 6.08733 1.77157 6.19349 1.66538C6.29966 1.55919 6.3593 1.41516 6.3593 1.26498C6.3593 1.1148 6.29966 0.970774 6.19349 0.864581C6.08733 0.758389 5.94333 0.69873 5.79319 0.69873H2.39656C1.94614 0.69873 1.51416 0.877705 1.19567 1.19628C0.877172 1.51486 0.698242 1.94694 0.698242 2.39748V9.19248C0.698242 9.64302 0.877172 10.0751 1.19567 10.3937C1.51416 10.7123 1.94614 10.8912 2.39656 10.8912H9.18983C9.64025 10.8912 10.0722 10.7123 10.3907 10.3937C10.7092 10.0751 10.8881 9.64302 10.8881 9.19248V5.79498C10.8881 5.6448 10.8285 5.50077 10.7223 5.39458C10.6162 5.28839 10.4722 5.22873 10.322 5.22873Z" fill="white"/>
<path d="M8.05769 1.83123H8.95214L5.39133 5.38728C5.33827 5.43992 5.29615 5.50255 5.26741 5.57155C5.23867 5.64055 5.22388 5.71457 5.22388 5.78932C5.22388 5.86407 5.23867 5.93808 5.26741 6.00708C5.29615 6.07609 5.33827 6.13871 5.39133 6.19135C5.44396 6.24443 5.50657 6.28655 5.57555 6.3153C5.64454 6.34405 5.71853 6.35885 5.79327 6.35885C5.868 6.35885 5.94199 6.34405 6.01098 6.3153C6.07996 6.28655 6.14257 6.24443 6.1952 6.19135L9.75601 2.63531V3.52998C9.75601 3.68016 9.81565 3.82419 9.92181 3.93038C10.028 4.03657 10.172 4.09623 10.3221 4.09623C10.4723 4.09623 10.6162 4.03657 10.7224 3.93038C10.8286 3.82419 10.8882 3.68016 10.8882 3.52998V1.26498C10.8882 1.1148 10.8286 0.970774 10.7224 0.864581C10.6162 0.758389 10.4723 0.69873 10.3221 0.69873H8.05769C7.90755 0.69873 7.76356 0.758389 7.65739 0.864581C7.55123 0.970774 7.49158 1.1148 7.49158 1.26498C7.49158 1.41516 7.55123 1.55919 7.65739 1.66538C7.76356 1.77157 7.90755 1.83123 8.05769 1.83123V1.83123Z" fill="white"/>
</svg>
