<?xml version="1.0" encoding="UTF-8" standalone="no"?>
<!-- Created with Inkscape (http://www.inkscape.org/) -->

<svg
   version="1.1"
   id="svg2"
   xml:space="preserve"
   width="793.70667"
   height="1122.52"
   viewBox="0 0 793.70667 1122.52"
   sodipodi:docname="pikachu-pokemon-seeklogo.com.ai"
   xmlns:inkscape="http://www.inkscape.org/namespaces/inkscape"
   xmlns:sodipodi="http://sodipodi.sourceforge.net/DTD/sodipodi-0.dtd"
   xmlns="http://www.w3.org/2000/svg"
   xmlns:svg="http://www.w3.org/2000/svg"><defs
     id="defs6"><clipPath
       clipPathUnits="userSpaceOnUse"
       id="clipPath16"><path
         d="M 0,841.89 H 595.28 V 0 H 0 Z"
         id="path14" /></clipPath></defs><sodipodi:namedview
     id="namedview4"
     pagecolor="#ffffff"
     bordercolor="#666666"
     borderopacity="1.0"
     inkscape:pageshadow="2"
     inkscape:pageopacity="0.0"
     inkscape:pagecheckerboard="0" /><g
     id="g8"
     inkscape:groupmode="layer"
     inkscape:label="pikachu-pokemon-seeklogo.com"
     transform="matrix(1.3333333,0,0,-1.3333333,0,1122.52)"><g
       id="g10"><g
         id="g12"
         clip-path="url(#clipPath16)"><g
           id="g18"
           transform="translate(358.6689,508.8945)"><path
             d="m 0,0 c -0.127,-0.498 -0.614,-0.531 -0.965,-0.725 -11.267,-6.247 -23.469,-9.876 -35.922,-12.797 -1.152,-0.27 -2.311,-0.515 -3.528,-0.785 0.077,-0.187 0.128,-0.364 0.22,-0.517 4.029,-6.771 6.248,-14.138 7.335,-21.904 1.464,-10.452 2.413,-20.964 3.719,-31.434 1.136,-9.104 3.106,-18.074 4.617,-27.117 2.622,-15.696 7.024,-30.985 10.362,-46.514 0.658,-3.062 1.357,-6.117 1.78,-9.225 0.03,-0.218 0.118,-0.43 0.2,-0.722 3.388,1.727 6.712,3.429 10.043,5.117 0.723,0.366 0.207,0.769 0.041,1.114 -2.161,4.47 -4.339,8.932 -6.513,13.396 -0.698,1.43 -0.691,1.463 0.716,2.129 4.249,2.005 8.487,4.032 12.756,5.988 0.794,0.364 0.862,0.68 0.548,1.443 -3.026,7.383 -6.013,14.782 -9.011,22.178 -0.626,1.545 -0.603,1.596 1,2.22 7.043,2.739 14.116,5.397 21.281,7.79 -0.011,0.467 -0.322,0.727 -0.531,1.034 -10.169,14.864 -20.341,29.726 -30.515,44.587 -0.928,1.354 -0.937,1.368 0.435,2.303 17.159,11.696 34.731,22.744 52.489,33.5 8.042,4.87 16.157,9.614 24.441,14.065 0.807,0.432 1.279,0.422 1.731,-0.448 8.068,-15.566 16.184,-31.108 22.882,-47.334 0.699,-1.694 1.276,-3.437 1.967,-5.133 0.358,-0.876 0.139,-1.271 -0.754,-1.606 -9.864,-3.705 -19.761,-7.316 -29.799,-10.533 -10.107,-3.239 -20.231,-6.423 -30.464,-9.244 -0.961,-0.265 -1.038,-0.606 -0.758,-1.486 2.814,-8.88 5.584,-17.774 8.366,-26.664 0.458,-1.463 0.442,-1.502 -1.041,-2.018 -6.672,-2.316 -13.339,-4.646 -20.024,-6.922 -0.828,-0.281 -0.918,-0.587 -0.689,-1.378 1.939,-6.672 3.796,-13.368 5.761,-20.034 0.349,-1.185 0.075,-1.629 -1.031,-2.102 -5.76,-2.46 -11.469,-5.036 -17.218,-7.517 -0.839,-0.361 -0.835,-0.709 -0.517,-1.437 1.756,-4.025 3.467,-8.069 5.189,-12.108 0.528,-1.24 0.473,-1.37 -0.788,-1.81 -6.165,-2.148 -12.331,-4.295 -18.499,-6.432 -0.557,-0.193 -1.017,-0.313 -0.986,-1.117 0.465,-11.895 -4.405,-21.903 -11.138,-31.231 -1.682,-2.33 -3.587,-4.478 -5.706,-6.429 -2.023,-1.862 -4.343,-3.243 -6.9,-4.229 -0.588,-0.226 -1.031,-0.57 -1.414,-1.087 -4.302,-5.811 -9.89,-10.179 -15.893,-14.069 -1.093,-0.708 -2.268,-1.343 -3.533,-1.606 -1.43,-0.297 -2.914,-0.334 -4.377,-0.462 -0.17,-0.014 -0.484,0.079 -0.509,0.175 -0.305,1.248 -1.243,0.887 -2.094,0.932 -0.942,0.051 -0.841,0.829 -0.753,1.482 0.509,3.784 1.503,7.409 3.497,10.707 0.23,0.383 0.735,0.844 -0.289,0.948 -6.362,0.644 -12.59,2.052 -18.83,3.379 -4.676,0.993 -9.369,1.877 -14.135,2.295 -1.69,0.15 -3.322,-0.444 -4.979,-0.693 -8.19,-1.235 -16.401,-2.008 -24.689,-1.303 -0.812,0.07 -1.321,-0.126 -1.834,-0.775 -2.019,-2.556 -4.697,-4.37 -7.309,-6.233 -3.145,-2.245 -6.445,-4.252 -9.947,-5.901 -0.841,-0.394 -1.735,-0.929 -2.616,0.005 -0.091,0.097 -0.361,0.05 -0.544,0.03 -1.034,-0.112 -1.446,0.361 -2.161,1.211 -1.579,1.88 -0.681,3.489 -0.139,5.151 1.421,4.359 3.771,8.164 7.288,11.272 -3.447,2.323 -6.361,5.091 -8.752,8.426 -4.17,5.815 -4.774,12.175 -2.985,18.899 0.52,1.955 1.326,3.826 2.326,5.596 2.073,3.666 3.688,7.543 5.321,11.414 0.313,0.74 0.218,1.221 -0.271,1.833 -4.582,5.739 -8.224,11.993 -9.764,19.25 -2.786,13.126 -0.916,25.527 6.092,37.066 0.775,1.277 1.52,2.58 2.54,3.672 0.512,0.55 0.345,0.814 -0.095,1.273 -3.226,3.374 -6.396,6.799 -9.208,10.536 -2.424,3.22 -4.471,6.662 -6.073,10.362 -1.793,4.141 -1.841,8.153 0.556,12.171 3.448,5.778 4.686,12.165 5.088,18.834 0.425,7.066 1.496,14.059 4.065,20.73 0.688,1.785 1.529,3.499 2.458,5.17 0.225,0.405 0.397,0.642 -0.211,0.935 -13.637,6.565 -24.953,16.202 -35.487,26.87 -0.56,0.568 -1.107,1.147 -1.66,1.721 -0.04,0.471 0.305,0.439 0.606,0.468 0.45,-0.067 0.736,-0.35 0.953,-0.723 0.43,-1.067 0.678,-0.265 0.969,0.097 0.631,0.025 0.722,-0.493 0.848,-0.908 0.298,-0.984 0.887,-1.749 1.608,-2.459 6.122,-6.04 12.603,-11.648 19.721,-16.497 3.942,-2.839 8.068,-5.368 12.478,-7.425 0.583,-0.273 0.987,-0.26 1.346,0.323 0.521,0.846 1.186,1.591 1.744,2.413 1.063,1.469 2.399,2.669 3.76,3.845 0.145,0.126 0.288,0.255 0.461,0.339 0.275,0.134 0.57,0.303 0.848,0.041 0.354,-0.336 0.094,-0.652 -0.12,-0.903 -0.968,-1.135 -2.067,-2.144 -3.05,-3.272 -3.723,-4.273 -6.129,-9.226 -7.621,-14.637 -1.375,-4.992 -2.108,-10.101 -2.567,-15.257 -0.288,-3.232 -0.375,-6.489 -1.078,-9.678 -0.314,-1.427 -0.856,-2.777 -1.287,-4.165 -0.155,-0.5 -0.247,-0.972 0.221,-1.364 2.275,-1.901 3.188,-4.529 3.814,-7.283 1.031,-4.54 0.87,-9.036 -0.632,-13.463 -0.362,-1.065 -0.874,-2.052 -1.671,-2.847 -0.544,-0.543 -0.53,-1 -0.085,-1.595 2.109,-2.822 4.409,-5.482 6.72,-8.138 4.581,-5.265 10.077,-9.471 15.566,-13.693 0.122,-0.093 0.259,-0.171 0.363,-0.281 0.34,-0.362 1.083,-0.67 0.619,-1.254 -0.423,-0.533 -1,-0.033 -1.417,0.254 -3.538,2.428 -6.871,5.121 -10.095,7.949 -1.304,1.143 -1.449,1.205 -2.442,-0.263 -3.594,-5.309 -6.271,-11.027 -7.635,-17.326 -0.757,-3.489 -1.19,-7.008 -1.165,-10.581 0.071,-10.197 3.035,-19.424 9.218,-27.581 1.457,-1.922 2.906,-3.848 4.668,-5.51 0.665,-0.627 1.085,-1.395 1.218,-2.289 0.14,-0.939 0.591,-1.065 1.333,-0.61 0.943,0.579 1.861,0.618 2.776,-0.075 0.531,-0.401 0.969,-0.19 1.421,0.216 1.25,1.121 1.286,1.147 2.637,0.324 0.791,-0.482 1.186,-0.404 1.51,0.511 0.393,1.109 0.752,1.251 1.948,0.968 1.83,-0.431 1.944,-0.836 2.276,1.655 0.208,1.56 0.383,1.8 1.904,2.148 0.668,0.152 0.926,0.404 0.723,1.093 -0.152,0.517 -0.125,1.065 -0.068,1.598 0.534,4.947 0.678,9.908 0.676,14.883 -0.004,7.804 -1.871,15.142 -5.216,22.144 -0.314,0.658 -0.601,1.325 -0.868,2 -0.133,0.336 -0.402,0.78 0.058,1.016 0.432,0.224 0.698,-0.187 0.896,-0.509 0.782,-1.272 1.495,-2.583 2.099,-3.95 2.29,-5.187 3.888,-10.578 4.242,-16.245 0.222,-3.573 0.464,-7.152 0.16,-10.763 -0.253,-3.002 -0.477,-6.017 -0.604,-9.033 -0.025,-0.593 0.158,-1.129 0.304,-1.683 0.286,-1.083 0.055,-1.465 -1.018,-1.755 -1.764,-0.475 -1.764,-0.475 -2.021,-2.289 -0.053,-0.379 -0.128,-0.755 -0.227,-1.125 -0.211,-0.793 -0.743,-1.121 -1.545,-1.027 -0.342,0.039 -0.685,0.105 -1.007,0.221 -0.864,0.312 -1.402,0.131 -1.796,-0.791 -0.545,-1.276 -1.177,-1.464 -2.345,-0.706 -0.888,0.575 -1.561,0.638 -2.273,-0.228 -0.608,-0.74 -1.378,-0.787 -2.136,-0.215 -0.771,0.582 -1.495,0.543 -2.341,0.114 -1.834,-0.933 -2.289,-0.735 -2.746,1.324 -0.286,1.286 -1.037,2.178 -1.938,3.03 -0.514,0.486 -0.81,0.419 -1.078,-0.235 -0.621,-1.524 -1.273,-3.034 -1.895,-4.557 -1.333,-3.266 -3.34,-6.197 -4.637,-9.481 -2.056,-5.208 -2.114,-10.435 -0.275,-15.703 0.642,-1.914 1.844,-3.501 2.992,-5.121 1.809,-2.55 4.147,-4.568 6.556,-6.515 0.81,-0.656 1.718,-1.133 2.669,-1.543 0.379,-0.164 0.889,-0.34 0.712,-0.865 -0.166,-0.494 -0.656,-0.284 -0.992,-0.168 -0.595,0.205 -1.039,0.005 -1.444,-0.399 -3.803,-3.57 -6.077,-7.981 -7.19,-13.031 0.435,1.137 0.973,2.227 1.567,3.291 0.617,1.102 1.298,2.162 2.173,3.085 0.131,0.138 0.234,0.304 0.374,0.433 0.294,0.271 0.646,0.534 1.013,0.245 0.428,-0.335 0.103,-0.704 -0.133,-0.987 -1.014,-1.21 -1.778,-2.577 -2.539,-3.947 -0.578,-1.042 -0.973,-2.16 -1.275,-3.308 -0.1,-0.382 -0.305,-0.891 0.309,-1.039 0.472,-0.112 0.816,0.169 0.964,0.619 0.585,1.79 1.794,3.182 2.917,4.629 0.399,0.514 0.845,0.992 1.398,1.346 0.288,0.186 0.643,0.401 0.942,0.107 0.325,-0.32 0.035,-0.636 -0.165,-0.909 -0.701,-0.955 -1.543,-1.799 -2.216,-2.776 -0.585,-0.848 -1.222,-1.67 -1.509,-2.686 -0.166,-0.589 0.005,-0.806 0.622,-0.589 1.238,0.433 2.315,1.175 3.458,1.788 2.43,1.3 4.707,2.848 6.972,4.415 1.896,1.547 3.972,2.874 5.627,4.704 0.225,0.247 0.665,0.456 0.561,0.803 -0.128,0.426 -0.647,0.319 -0.997,0.358 -1.981,0.219 -3.939,0.557 -5.852,1.117 -0.52,0.153 -1.368,0.268 -1.204,0.951 0.182,0.758 1.01,0.481 1.576,0.354 3.967,-0.889 7.987,-1.233 12.04,-1.502 5.915,-0.395 11.753,0.129 17.594,0.87 1.449,0.184 2.915,0.185 4.361,0.376 -1.792,-0.205 -3.59,-0.285 -5.394,-0.223 -0.404,0.014 -0.999,-0.025 -1.033,0.487 -0.042,0.644 0.605,0.555 1.029,0.599 5.28,0.553 10.529,0.233 15.768,-0.545 5.301,-0.786 10.512,-2.023 15.758,-3.086 6.868,-1.391 13.757,-2.652 20.805,-2.306 6.336,0.309 12.543,1.236 18.323,4.129 3.058,1.531 5.362,3.895 7.617,6.345 0.697,0.758 1.347,1.564 1.984,2.375 4.47,5.912 7.963,12.334 10.08,19.461 0.943,3.177 1.213,6.459 1.341,9.75 0.055,1.426 -0.028,1.49 -1.399,1.711 -1.628,0.264 -3.224,0.658 -4.824,1.039 -3.222,0.767 -6.072,2.308 -8.732,4.213 -2.021,1.449 -1.943,2.717 0.217,4.008 1.574,0.942 3.185,1.826 4.901,2.503 2.208,0.87 4.396,1.787 6.615,2.63 1.363,0.518 1.44,0.611 1.149,2.012 -1.013,4.871 -2.163,9.711 -3.28,14.558 -0.747,3.244 -1.632,6.457 -2.391,9.698 -0.254,1.087 -0.769,1.59 -1.892,1.767 -4.407,0.691 -8.693,1.798 -12.645,3.964 -1.016,0.557 -1.962,1.196 -2.748,2.046 -0.822,0.887 -0.85,1.824 -0.111,2.795 0.422,0.556 0.97,0.966 1.56,1.335 3.163,1.976 6.7,2.973 10.258,3.903 2.194,0.572 1.975,0.418 1.596,2.499 -2.031,11.181 -4.319,22.317 -5.839,33.586 -0.619,4.585 -0.935,9.204 -1.495,13.795 -0.938,7.668 -1.663,15.366 -3.161,22.955 -0.513,2.596 -1.421,5.082 -2.264,7.584 -0.949,2.709 -2.204,5.274 -3.638,7.759 -0.424,0.733 -0.953,0.957 -1.799,0.792 -1.193,-0.233 -2.409,-0.377 -3.632,-0.392 -0.397,0.089 -0.76,0.208 -0.635,0.742 0.267,0.384 0.684,0.461 1.101,0.53 6.837,1.124 13.532,2.861 20.202,4.699 5.695,1.648 11.33,3.467 16.698,6.023 1.104,0.526 2.231,0.998 3.33,1.54 1.548,0.763 3.134,1.449 4.048,3.048 0.094,0.165 0.275,0.261 0.461,0.323 0.256,0.026 0.512,-0.09 0.424,-0.34 C -0.941,0.441 -0.367,0.296 0,0"
             style="fill:#221714;fill-opacity:1;fill-rule:evenodd;stroke:none"
             id="path20" /></g><g
           id="g22"
           transform="translate(174.5146,526.9102)"><path
             d="m 0,0 c -0.113,-0.399 0.136,-1.024 -0.461,-1.124 -0.464,-0.076 -0.677,0.36 -0.732,0.807 0.281,0.483 -0.052,0.895 -0.194,1.299 -2.011,5.745 -3.116,11.685 -3.483,17.731 -0.194,3.188 -0.365,6.422 0.195,9.611 0.162,0.926 -0.405,1.237 -1.052,1.522 -2.1,0.925 -4.169,1.916 -6.283,2.81 -4.024,1.701 -8.126,3.163 -12.375,4.192 -0.367,0.088 -0.73,0.233 -1.222,0.136 -0.078,-0.62 0.261,-1.138 0.501,-1.669 4.387,-9.666 9.877,-18.64 16.731,-26.768 C -6.527,6.355 -4.769,4.088 -2.791,2.006 -2.365,1.559 -1.812,1.12 -1.88,0.37 -2.144,0.363 -2.423,0.401 -2.584,0.113 c -3.967,4.354 -7.706,8.884 -11.224,13.619 -2.43,3.272 -4.659,6.649 -6.673,10.171 -2.406,4.207 -4.808,8.425 -6.472,13.006 -0.156,0.43 -0.472,0.991 -0.131,1.249 0.312,0.236 0.954,0.194 1.396,0.074 2.704,-0.733 5.429,-1.419 8.079,-2.319 4.408,-1.499 8.638,-3.438 12.833,-5.46 21.189,-10.21 38.817,-24.911 54.015,-42.697 0.559,-0.653 0.843,-1.827 1.636,-1.897 0.699,-0.062 1.446,0.759 2.212,1.097 6.467,2.854 13.205,4.8 20.196,5.813 5.949,0.861 11.93,1.413 17.955,1.155 10.063,-0.432 19.923,-1.929 29.342,-5.691 1.992,-0.796 3.95,-1.671 5.691,-2.932 0.61,-0.442 0.96,-0.438 1.542,0.02 6.943,5.463 14.544,9.858 22.443,13.764 10.232,5.062 20.767,9.311 31.969,11.717 5.351,1.15 10.726,2.192 16.187,2.719 3.083,0.297 6.156,0.714 9.265,0.657 1.094,0.226 2.214,-0.069 3.307,0.167 l 3.809,0.06 c 2.467,0.118 4.934,0.176 7.398,-0.032 0.18,-1.253 -0.894,-1.826 -1.479,-2.642 -2.688,-3.755 -5.824,-7.112 -9.224,-10.23 -0.388,-0.158 -0.643,-0.482 -0.941,-0.753 -0.225,-0.204 -0.451,-0.409 -0.76,-0.128 -0.011,0.671 0.525,0.996 0.922,1.38 3.084,2.98 5.992,6.119 8.598,9.532 0.39,0.513 0.805,1.01 1.148,1.586 -0.33,0.399 -0.736,0.252 -1.09,0.264 -4.244,0.138 -8.486,-0.059 -12.72,-0.265 -3.391,-0.165 -6.779,-0.49 -10.155,-0.892 -0.76,-0.09 -1.053,-0.452 -1.053,-1.2 0.004,-5.018 -1.664,-9.627 -3.673,-14.101 -2.13,-4.74 -4.586,-9.323 -7.466,-13.878 7.614,4.127 14.782,8.609 21.207,14.208 0.836,0.729 1.66,1.469 2.478,2.217 0.462,0.421 0.9,0.965 1.64,0.931 0.283,-0.413 -0.119,-0.661 -0.234,-0.978 -0.722,-1.085 -1.823,-1.816 -2.777,-2.618 -3.684,-3.1 -7.49,-6.057 -11.587,-8.619 -3.425,-2.144 -6.831,-4.318 -10.454,-6.125 -0.154,-0.078 -0.276,-0.066 -0.417,-0.078 -1.328,-0.234 -0.983,0.701 -0.975,1.399 -0.093,0.289 0.04,0.529 0.187,0.751 1.529,2.294 2.726,4.776 4.095,7.157 1.533,2.668 2.689,5.489 3.885,8.295 1.474,3.46 2.468,7.071 2.756,10.851 0.091,1.201 -0.116,1.447 -1.348,1.233 -6.635,-1.152 -13.245,-2.398 -19.68,-4.461 -13.712,-4.395 -26.543,-10.618 -38.617,-18.43 -2.378,-1.538 -4.591,-3.313 -6.86,-5.005 -0.306,-0.229 -0.596,-0.49 -0.947,-0.646 -0.562,-0.252 -1.047,-0.182 -1.003,0.553 0.045,0.729 -0.402,1.024 -0.903,1.317 -1.69,0.987 -3.472,1.779 -5.3,2.469 -6.115,2.309 -12.423,3.803 -18.913,4.587 -4.253,0.513 -8.526,0.959 -12.795,0.849 -11.153,-0.288 -22.083,-1.922 -32.492,-6.197 -1.808,-0.743 -3.529,-1.664 -5.254,-2.574 -0.304,-0.16 -0.586,-0.369 -0.932,-0.431 -0.272,-0.049 -0.553,-0.051 -0.693,0.247 -0.113,0.239 0.029,0.437 0.168,0.626 0.261,0.354 0.878,0.482 0.797,1.038 -0.08,0.55 -0.544,0.905 -0.881,1.317 -4.152,5.067 -8.685,9.781 -13.415,14.3 -9.191,8.78 -19.242,16.436 -30.2,22.896 -2.307,1.361 -4.663,2.632 -7.014,3.913 -0.862,0.469 -1.109,0.338 -1.342,-0.631 -0.054,-0.223 -0.095,-0.45 -0.103,-0.679 C -3.914,18.913 -3.178,11.219 -0.876,3.715 -0.607,2.838 -0.356,1.954 -0.022,1.097 0.115,0.745 0.255,0.37 0,0"
             style="fill:#221714;fill-opacity:1;fill-rule:evenodd;stroke:none"
             id="path24" /></g><g
           id="g26"
           transform="translate(396.7061,541.2832)"><path
             d="m 0,0 c -2.465,0.011 -4.932,0.021 -7.397,0.032 2.381,0.295 4.774,0.16 7.164,0.167 C -0.156,0.199 -0.077,0.069 0,0"
             style="fill:#2a2524;fill-opacity:1;fill-rule:evenodd;stroke:none"
             id="path28" /></g><g
           id="g30"
           transform="translate(384.3496,527.5098)"><path
             d="M 0,0 C 0.726,-0.019 0.9,0.972 1.653,0.901 1.021,0.14 0.315,-0.547 -0.446,-1.176 c 0.072,0.316 0.145,0.632 0.218,0.947 C -0.281,-0.023 -0.205,0.053 0,0"
             style="fill:#221714;fill-opacity:1;fill-rule:evenodd;stroke:none"
             id="path32" /></g><g
           id="g34"
           transform="translate(385.499,541.2554)"><path
             d="M 0,0 C -1.085,-0.412 -2.203,-0.149 -3.307,-0.167 -2.217,0.115 -1.107,0.02 0,0"
             style="fill:#2a2524;fill-opacity:1;fill-rule:evenodd;stroke:none"
             id="path36" /></g><g
           id="g38"
           transform="translate(174.5146,526.9102)"><path
             d="m 0,0 c -0.561,1.85 -1.131,3.697 -1.68,5.55 -0.838,2.828 -1.348,5.735 -1.766,8.64 -0.529,3.677 -0.552,7.401 -0.429,11.114 0.027,0.816 -0.066,1.613 0.114,2.466 0.255,1.197 0.642,1.102 1.497,0.652 9.065,-4.759 17.636,-10.278 25.646,-16.658 9.245,-7.365 17.69,-15.555 25.288,-24.612 0.049,-0.059 0.099,-0.117 0.147,-0.176 1.217,-1.481 1.215,-1.479 -0.197,-2.649 -0.104,-0.086 -0.156,-0.234 -0.232,-0.352 0.419,-0.335 0.692,-0.019 0.966,0.136 7.309,4.157 15.255,6.396 23.481,7.765 4.342,0.723 8.727,1.196 13.121,1.256 12.147,0.168 24.021,-1.398 35.347,-6.069 1.485,-0.613 2.916,-1.346 4.261,-2.23 0.362,-0.237 1.012,-0.451 0.315,-1.053 -0.151,-0.131 -0.131,-0.355 0.044,-0.504 0.177,-0.15 0.362,-0.09 0.524,0.024 0.313,0.221 0.616,0.454 0.92,0.685 15.492,11.798 32.736,20.027 51.471,25.186 4.683,1.289 9.486,2.025 14.263,2.876 0.95,0.169 1.354,-0.048 1.297,-1.152 -0.206,-4.112 -1.38,-7.973 -2.908,-11.742 -0.882,-2.174 -1.718,-4.396 -2.877,-6.424 -1.787,-3.127 -3.222,-6.466 -5.434,-9.346 -1.077,-1.837 -2.87,-2.71 -4.687,-3.623 -6.18,-3.11 -12.668,-5.397 -19.285,-7.35 -0.18,-0.053 -0.377,-0.043 -0.566,-0.062 -4.239,-1.111 -8.558,-1.451 -12.915,-1.243 -2.173,0.104 -4.342,0.252 -6.52,0.21 -1.659,-0.032 -1.741,-0.16 -1.638,-1.778 0.049,-0.748 0.528,-1.595 -0.283,-2.249 -0.076,-0.586 0.418,-0.362 0.675,-0.475 0.263,-0.107 0.419,-0.311 0.536,-0.563 1.104,-2.362 2.85,-4.216 4.721,-5.972 0.803,-0.753 1.769,-1.176 2.838,-1.384 0.367,-0.072 0.774,-0.005 1.066,-0.322 1.842,-4.527 2.791,-9.268 3.469,-14.087 1.472,-10.485 2.371,-21.037 3.723,-31.534 1.114,-8.64 2.829,-17.186 4.436,-25.746 0.501,-2.665 0.944,-5.342 1.506,-7.994 0.188,-0.887 -0.135,-1.069 -0.888,-1.246 -3.609,-0.848 -7.187,-1.808 -10.471,-3.608 -0.602,-0.33 -1.196,-0.687 -1.75,-1.089 -1.578,-1.148 -1.63,-2.438 -0.089,-3.618 2.808,-2.149 6.054,-3.398 9.432,-4.287 1.954,-0.513 3.958,-0.84 5.948,-1.211 0.737,-0.136 1.133,-0.392 1.35,-1.228 2.198,-8.506 4.099,-17.08 6.039,-25.647 0.186,-0.816 -0.057,-1.112 -0.805,-1.4 -3.917,-1.514 -7.893,-2.895 -11.565,-4.981 -2.856,-1.625 -2.857,-2.516 -0.16,-4.4 3.999,-2.794 8.546,-4.013 13.261,-4.727 1.037,-0.158 1.166,-0.549 1.172,-1.456 0.054,-8.251 -2.677,-15.667 -6.724,-22.694 -1.431,-2.484 -2.911,-4.937 -4.794,-7.119 -2.427,-2.096 -5.459,-2.854 -8.408,-3.771 -3.432,-1.067 -6.996,-1.241 -10.547,-1.371 -2.79,-0.102 -5.586,0.007 -8.379,-0.026 -6.439,-0.076 -12.718,0.896 -18.902,2.66 -6.924,1.975 -13.68,4.434 -20.446,6.871 -5.268,1.898 -10.6,3.541 -16.225,3.971 -4.898,0.374 -9.614,-0.448 -14.124,-2.367 -3.03,-1.288 -6.037,-2.651 -9.242,-3.425 -5.816,-1.406 -11.461,-0.997 -16.802,1.918 -1.629,0.89 -3.104,1.958 -4.112,3.565 -1.67,4.268 -1.837,8.639 -0.762,13.053 0.645,2.651 1.796,5.115 3.132,7.488 1.805,3.206 3.19,6.604 4.564,10.006 0.279,0.691 0.448,0.811 1.028,0.207 1.195,-1.246 2.399,-2.425 2.543,-4.309 0.074,-0.962 0.687,-1.209 1.546,-0.71 0.264,0.152 0.571,0.244 0.809,0.428 0.83,0.641 1.591,0.582 2.34,-0.133 0.81,-0.774 1.515,-0.561 2.054,0.314 0.58,0.942 1.226,0.969 2.014,0.278 0.199,-0.172 0.452,-0.285 0.681,-0.422 0.812,-0.486 1.31,-0.3 1.648,0.623 0.548,1.497 0.588,1.48 2.125,1.097 0.334,-0.083 0.671,-0.147 1.005,-0.227 0.713,-0.172 1.1,0.13 1.215,0.828 0.13,0.792 0.318,1.58 0.367,2.378 0.048,0.762 0.363,1.105 1.117,1.074 0.11,-0.006 0.222,0.052 0.335,0.073 1.783,0.34 1.767,0.335 1.207,2.098 -0.348,1.095 -0.046,2.209 0.051,3.299 0.577,6.414 0.857,12.827 0.134,19.246 -0.751,6.665 -2.928,12.864 -6.215,18.69 -0.073,0.129 -0.178,0.245 -0.287,0.348 -0.045,0.041 -0.14,0.029 -0.259,0.049 -0.252,-0.461 0.132,-0.772 0.292,-1.11 2.478,-5.233 4.598,-10.586 5.441,-16.36 0.773,-5.287 0.756,-10.601 0.438,-15.919 -0.139,-2.328 -0.358,-4.651 -0.53,-6.978 -0.026,-0.341 -0.119,-0.758 0.031,-1.019 0.848,-1.469 -0.108,-1.642 -1.181,-1.671 -0.999,-0.027 -1.282,-0.603 -1.359,-1.462 -0.081,-0.907 0.073,-2.104 -0.547,-2.606 -0.603,-0.487 -1.654,0.189 -2.481,0.427 -0.885,0.252 -1.05,-0.285 -1.275,-0.886 -0.551,-1.475 -0.62,-1.558 -1.909,-0.626 -1.07,0.773 -1.75,0.57 -2.438,-0.423 -0.311,-0.447 -0.668,-1.041 -1.336,-0.371 -0.99,0.994 -1.977,0.793 -3.073,0.107 -1.129,-0.705 -1.221,-0.648 -1.414,0.711 -0.143,1.008 -0.64,1.73 -1.316,2.456 -6.522,7.023 -11.432,14.937 -13.064,24.545 -2.257,13.282 0.398,25.536 7.976,36.694 1.265,1.861 1.305,1.825 2.979,0.385 3.163,-2.719 6.392,-5.357 9.827,-7.732 0.22,-0.152 0.429,-0.328 0.664,-0.45 0.243,-0.126 0.534,-0.523 0.774,-0.148 0.22,0.345 -0.23,0.504 -0.447,0.668 -3.507,2.659 -6.998,5.344 -10.274,8.281 -4.888,4.382 -9.187,9.307 -13.042,14.617 -0.214,0.295 -0.685,0.596 -0.147,1.049 2.093,1.762 2.569,4.268 3.024,6.755 0.766,4.19 0.392,8.318 -1.001,12.323 -0.652,1.873 -1.493,3.709 -3.345,4.78 -0.362,0.21 -0.326,0.449 -0.186,0.766 2.382,5.424 2.204,11.28 2.845,16.996 0.524,4.68 1.271,9.318 2.616,13.836 1.893,6.356 5.186,11.885 9.971,16.507 0.305,0.295 0.776,0.501 0.807,1.322 -1.103,-0.67 -1.903,-1.439 -2.685,-2.205 -0.791,-0.775 -1.506,-1.626 -2.255,-2.444 -0.976,-0.475 -1.966,-0.124 -2.896,0.08 -4.515,0.993 -8.936,2.283 -12.927,4.726 -5.342,3.439 -10.151,7.55 -14.854,11.795 -0.68,0.613 -1.357,1.23 -2.013,1.869 C 3.136,-4.49 0.87,-2.8 0,0"
             style="fill:#fdd723;fill-opacity:1;fill-rule:evenodd;stroke:none"
             id="path40" /></g><g
           id="g42"
           transform="translate(363.7334,389.2734)"><path
             d="m 0,0 c -2.611,6.443 -5.206,12.893 -7.85,19.322 -0.339,0.828 -0.218,1.146 0.631,1.471 6.778,2.596 13.565,5.165 20.445,7.478 1.764,0.594 1.783,0.664 0.706,2.237 -10.135,14.798 -20.262,29.601 -30.424,44.381 -0.602,0.875 -0.641,1.275 0.319,1.918 24.303,16.294 49.019,31.92 74.569,46.198 2.338,1.306 2.356,1.265 3.571,-1.073 7.296,-14.039 14.558,-28.095 20.748,-42.672 1.06,-2.495 2.119,-4.991 2.92,-7.586 0.046,-0.542 -0.381,-0.611 -0.74,-0.684 -0.373,-0.075 -0.751,-0.135 -1.137,-0.136 -4.089,-0.011 -8.18,0.062 -12.264,-0.224 -3.543,-0.248 -7.09,-0.445 -10.628,-0.749 -7.009,-0.6 -13.991,-1.43 -20.952,-2.453 C 30.377,66.024 20.869,64.472 11.517,62.084 10.663,61.866 9.818,61.624 8.988,61.33 7.795,60.907 7.703,60.746 8.209,59.587 c 1.484,-3.4 2.887,-6.834 4.304,-10.262 3.33,-8.058 6.651,-16.12 9.969,-24.182 0.678,-1.645 0.55,-1.874 -1.164,-2.281 C 15.357,21.447 9.32,20.479 3.223,19.885 1.625,19.729 0.029,19.555 -1.567,19.396 -2.672,19.287 -2.797,19.109 -2.475,17.984 -1.318,13.94 -0.109,9.912 1.062,5.871 1.243,5.246 1.454,4.631 1.415,3.965 1.408,3.642 1.402,3.317 1.324,3 1.082,2.24 1.01,1.437 0.771,0.679 0.662,0.327 0.633,-0.206 0,0"
             style="fill:#fdd723;fill-opacity:1;fill-rule:evenodd;stroke:none"
             id="path44" /></g><g
           id="g46"
           transform="translate(364.8682,393.1279)"><path
             d="m 0,0 c -0.334,2.429 -1.258,4.7 -1.889,7.048 -0.699,2.611 -1.495,5.198 -2.287,7.784 -0.175,0.57 -0.136,0.825 0.524,0.894 1.735,0.181 3.463,0.451 5.2,0.615 5.337,0.504 10.642,1.194 15.87,2.414 1.073,0.25 2.148,0.501 3.232,0.687 0.805,0.139 0.969,0.391 0.623,1.203 -1.628,3.823 -3.175,7.682 -4.765,11.522 -3.341,8.069 -6.678,16.139 -10.057,24.191 -0.323,0.771 -0.114,0.971 0.578,1.2 4.492,1.486 9.128,2.365 13.742,3.341 4.757,1.006 9.565,1.732 14.366,2.475 4.089,0.633 8.202,1.108 12.302,1.668 4.633,0.634 9.288,1.043 13.95,1.394 3.644,0.274 7.293,0.472 10.937,0.715 3.672,0.245 7.334,0.074 10.998,0.174 0.465,0.012 0.938,-0.037 1.176,0.494 C 84.948,67.061 84.214,67.1 83.877,66.973 75.725,63.911 67.567,60.864 59.291,58.15 47.57,54.306 35.805,50.608 23.924,47.284 22.269,46.821 22.248,46.771 22.75,45.169 25.527,36.315 28.285,27.455 31.111,18.616 31.432,17.614 31.187,17.343 30.276,17.034 23.587,14.761 16.922,12.418 10.235,10.135 9.279,9.809 8.98,9.398 9.297,8.374 10.01,6.079 10.598,3.745 11.235,1.427 11.48,0.368 11.297,-0.69 11.203,-1.745 11.173,-2.087 11.016,-2.437 10.635,-2.532 10.209,-2.638 10.029,-2.28 9.857,-1.993 9.253,-0.979 8.627,0.024 8.15,1.318 8.08,0.081 8.029,-0.997 7.828,-2.056 7.764,-2.398 7.723,-2.773 7.353,-2.909 6.887,-3.081 6.672,-2.677 6.436,-2.399 5.916,-1.788 5.5,-1.101 4.99,-0.362 4.812,-1.274 4.758,-2.151 4.521,-2.983 4.288,-3.802 3.791,-3.985 3.182,-3.415 2.045,-2.353 0.822,-1.36 0,0"
             style="fill:#e4aa2f;fill-opacity:1;fill-rule:evenodd;stroke:none"
             id="path48" /></g><g
           id="g50"
           transform="translate(207.5391,325.4355)"><path
             d="m 0,0 c 2.15,-2.115 4.583,-3.813 7.466,-4.742 5.568,-1.793 11.065,-1.457 16.548,0.537 3.474,1.264 6.748,3.039 10.361,3.937 3.545,0.882 7.097,1.105 10.751,0.786 6.976,-0.61 13.39,-3.142 19.873,-5.462 7.499,-2.683 15.014,-5.32 22.838,-6.902 3.092,-0.625 6.24,-0.954 9.399,-1.001 3.826,-0.056 7.654,-0.092 11.478,0.005 5.964,0.154 11.724,1.263 17.062,4.086 0.467,0.247 0.94,0.486 1.411,0.731 -4.512,-6.655 -10.814,-10.465 -18.661,-11.977 -8.263,-1.593 -16.494,-1.437 -24.72,0.135 -6.599,1.26 -13.171,2.666 -19.779,3.883 -5.925,1.089 -11.909,1.421 -17.923,0.805 -0.097,-0.009 -0.188,-0.074 -0.284,-0.32 h 6.74 c 0.005,-0.105 0.011,-0.209 0.017,-0.314 -3.161,-0.392 -6.316,-0.849 -9.485,-1.162 -4.571,-0.451 -9.154,-0.564 -13.746,-0.28 -3.894,0.241 -7.768,0.59 -11.564,1.548 -0.185,0.047 -0.372,0.094 -0.561,0.113 -0.218,0.022 -0.503,0.089 -0.563,-0.211 -0.058,-0.287 0.216,-0.39 0.427,-0.439 1.449,-0.34 2.894,-0.704 4.356,-0.977 1.302,-0.241 2.623,-0.375 4.144,-0.584 -2.075,-2.635 -4.665,-4.43 -7.226,-6.258 -0.352,0.329 -0.259,0.774 -0.305,1.182 -0.183,1.651 -0.632,3.229 -1.399,4.696 -0.974,1.865 -2.487,3.054 -4.577,3.49 -0.509,0.105 -1.084,0.045 -1.507,0.455 0.604,1.244 1.67,0.197 2.466,0.408 0.021,0.34 -0.191,0.386 -0.349,0.463 C 6.894,-10.56 2.967,-5.941 0.063,-0.333 0.014,-0.236 0.02,-0.112 0,0"
             style="fill:#e4aa2f;fill-opacity:1;fill-rule:evenodd;stroke:none"
             id="path52" /></g><g
           id="g54"
           transform="translate(364.8682,393.1279)"><path
             d="m 0,0 c 1.242,-0.83 2.101,-2.06 3.189,-3.05 0.215,-0.195 0.376,-0.588 0.713,-0.479 0.365,0.118 0.356,0.536 0.412,0.868 0.157,0.919 0.196,1.863 0.572,2.881 0.696,-0.955 1.323,-1.809 1.942,-2.668 0.112,-0.156 0.215,-0.376 0.417,-0.337 0.268,0.052 0.261,0.321 0.296,0.55 0.195,1.304 0.14,2.644 0.523,4.117 0.699,-1.286 1.303,-2.421 1.93,-3.542 0.152,-0.271 0.19,-0.794 0.627,-0.659 0.33,0.101 0.317,0.561 0.348,0.906 0.084,0.947 0.177,1.893 0.266,2.84 1.336,-4.606 2.663,-9.214 4.019,-13.815 0.166,-0.56 -0.189,-0.671 -0.531,-0.821 -5.104,-2.242 -10.21,-4.479 -15.317,-6.718 -0.733,-0.321 -1.467,-0.646 -2.205,-0.961 -1.312,-0.557 -1.418,-0.75 -0.865,-2.054 1.623,-3.833 3.263,-7.659 4.909,-11.481 0.653,-1.515 0.666,-1.498 -0.838,-2.019 -5.733,-1.985 -11.47,-3.963 -17.19,-5.985 -0.924,-0.326 -1.192,-0.158 -1.185,0.83 0.009,1.217 -0.03,2.46 -0.278,3.644 -0.19,0.898 0.14,1.209 0.84,1.559 3.143,1.573 6.248,3.227 9.404,4.772 1.006,0.491 1.098,0.964 0.613,1.931 -2.236,4.476 -4.392,8.994 -6.599,13.486 -0.299,0.608 -0.395,0.983 0.373,1.333 3.092,1.409 6.155,2.881 9.228,4.33 1.817,0.181 3.624,0.446 5.446,0.561 0.835,0.052 1.06,0.381 0.855,1.164 -0.51,1.955 -1.094,3.888 -1.62,5.838 -0.189,0.698 -0.396,1.389 -0.351,2.125 C -0.037,-0.569 -0.019,-0.285 0,0"
             style="fill:#973d0d;fill-opacity:1;fill-rule:evenodd;stroke:none"
             id="path56" /></g><g
           id="g58"
           transform="translate(172.6343,527.2798)"><path
             d="m 0,0 c -2.647,3.145 -5.33,6.26 -7.932,9.441 -3.479,4.253 -6.633,8.742 -9.39,13.499 -2.279,3.934 -4.459,7.92 -6.278,12.093 -0.273,0.625 -0.474,1.28 -0.753,2.044 1.827,-0.081 3.418,-0.705 5.029,-1.152 4.792,-1.329 9.343,-3.301 13.841,-5.398 0.312,-0.145 0.618,-0.304 0.939,-0.426 2.159,-0.826 1.951,-0.815 1.856,-3.129 -0.129,-3.197 -0.2,-6.406 0.102,-9.617 0.255,-2.728 0.561,-5.442 1.087,-8.126 C -0.891,6.124 -0.065,3.072 0.989,0.084 1.098,-0.224 1.499,-0.711 0.687,-0.687 0.537,-0.379 0.308,-0.15 0,0"
             style="fill:#2a2524;fill-opacity:1;fill-rule:evenodd;stroke:none"
             id="path60" /></g><g
           id="g62"
           transform="translate(218.1104,311.1953)"><path
             d="m 0,0 c 3.178,-0.037 5.406,-1.541 6.661,-4.428 0.743,-1.707 1.275,-3.488 1.127,-5.395 -3.241,-2.382 -6.69,-4.417 -10.311,-6.161 -0.319,-0.154 -0.74,-0.479 -1.051,-0.196 -0.305,0.278 -0.039,0.716 0.059,1.078 0.459,1.679 1.623,2.921 2.644,4.249 0.502,0.654 1.053,1.271 1.629,1.96 -0.667,0.289 -0.914,-0.162 -1.166,-0.42 -1.653,-1.704 -3.265,-3.441 -3.961,-5.802 -0.232,-0.785 -0.933,-0.761 -1.497,-0.665 -0.721,0.122 -0.49,0.741 -0.377,1.208 0.639,2.647 1.988,4.939 3.568,7.119 0.255,0.35 0.698,0.603 0.54,1.211 -2.494,-2.076 -3.844,-4.909 -4.982,-8.009 C -7.933,-11.197 -3.896,-3.246 0,0"
             style="fill:#fdd723;fill-opacity:1;fill-rule:evenodd;stroke:none"
             id="path64" /></g><g
           id="g66"
           transform="translate(312.7295,297.6074)"><path
             d="m 0,0 c -3.064,-2.465 -6.098,-4.977 -9.77,-6.523 -0.524,-0.222 -1.214,-0.793 -1.64,-0.356 -0.453,0.468 0.135,1.137 0.396,1.666 0.954,1.918 2.095,3.726 3.352,5.461 0.228,0.314 0.629,0.578 0.529,1.073 -0.358,0.193 -0.494,-0.11 -0.648,-0.29 -1.865,-2.195 -3.454,-4.564 -4.545,-7.245 -0.289,-0.713 -1.354,-1.245 -2.055,-1.044 -0.59,0.17 -0.334,0.617 -0.275,0.941 0.451,2.462 1.31,4.777 2.564,6.944 0.307,0.529 0.619,1.056 0.89,1.602 0.151,0.307 0.643,0.684 0.19,0.978 -0.449,0.291 -0.625,-0.275 -0.813,-0.569 -1.487,-2.329 -2.747,-4.773 -3.32,-7.495 -0.19,-0.909 -0.71,-1.149 -1.474,-1.275 -0.53,-0.088 -0.694,0.123 -0.63,0.617 0.518,3.986 1.677,7.747 3.847,11.165 0.27,0.427 0.605,0.382 0.988,0.321 1.817,-0.2 3.65,0.047 5.468,-0.187 0.3,-0.038 0.616,0.008 0.903,-0.107 C -3.656,4.72 -1.67,3.23 -0.119,1.175 0.146,0.822 0.247,0.421 0,0"
             style="fill:#fdd723;fill-opacity:1;fill-rule:evenodd;stroke:none"
             id="path68" /></g><g
           id="g70"
           transform="translate(205.0566,444.3682)"><path
             d="m 0,0 c 0.035,-2.907 -0.38,-5.568 -1.417,-8.121 -0.309,-0.757 -0.75,-1.407 -1.332,-1.982 -0.367,-0.361 -0.626,-0.506 -0.952,0.048 -2.049,3.497 -4.168,6.951 -4.713,11.099 -0.277,2.115 0.277,4.008 1.19,5.85 0.78,1.575 1.63,3.117 2.359,4.715 0.36,0.789 0.74,0.623 1.184,0.201 1.222,-1.161 1.965,-2.63 2.497,-4.196 C -0.329,5.097 0.055,2.497 0,0"
             style="fill:#e84f24;fill-opacity:1;fill-rule:evenodd;stroke:none"
             id="path72" /></g><g
           id="g74"
           transform="translate(337.041,391.8467)"><path
             d="m 0,0 c -4.963,0.782 -9.807,1.952 -14.099,4.712 -2.275,1.463 -2.255,2.101 0.02,3.507 3.525,2.178 7.49,3.158 11.459,4.12 0.521,0.126 0.706,-0.102 0.816,-0.635 C -1.034,8.015 -0.235,4.331 0.593,0.654 0.733,0.03 0.556,-0.117 0,0"
             style="fill:#c66e29;fill-opacity:1;fill-rule:evenodd;stroke:none"
             id="path76" /></g><g
           id="g78"
           transform="translate(346.2041,350.3828)"><path
             d="m 0,0 c 0.031,-1.072 0.031,-1.072 -1.354,-0.854 -4.492,0.708 -8.799,1.895 -12.595,4.553 -2.085,1.461 -2.101,1.747 0.095,3.006 3.7,2.119 7.734,3.458 11.665,5.042 0.519,0.21 0.73,0.103 0.841,-0.477 C -0.646,7.627 -0.25,3.949 0,0"
             style="fill:#c66e29;fill-opacity:1;fill-rule:evenodd;stroke:none"
             id="path80" /></g><g
           id="g82"
           transform="translate(312.7295,297.6074)"><path
             d="m 0,0 c -0.266,1.527 -1.506,2.3 -2.523,3.24 -2.267,2.098 -5.002,2.705 -8,2.545 -0.623,-0.034 -1.294,-0.194 -1.891,0.186 C -9.056,6.006 -5.697,5.826 -2.34,6.187 0.855,6.53 4.008,7.053 7.099,7.937 7.354,8.01 7.593,8.151 7.975,7.994 5.598,5.012 3.099,2.212 0,0"
             style="fill:#e4aa2f;fill-opacity:1;fill-rule:evenodd;stroke:none"
             id="path84" /></g><g
           id="g86"
           transform="translate(311.7998,494.1982)"><path
             d="m 0,0 c 0.359,0.906 -0.018,1.797 -0.123,2.672 -0.17,1.389 0.014,1.654 1.451,1.713 3.245,0.134 6.473,-0.261 9.715,-0.252 3.166,0.01 6.287,0.38 9.4,0.889 0.298,0.049 0.608,0.027 0.912,0.038 C 17.076,3.65 12.699,2.607 8.307,1.639 5.551,1.031 2.77,0.542 0,0"
             style="fill:#e4aa2f;fill-opacity:1;fill-rule:evenodd;stroke:none"
             id="path88" /></g><g
           id="g90"
           transform="translate(321.6357,485.4824)"><path
             d="m 0,0 c -1.789,-0.093 -3.219,0.624 -4.486,1.854 -1.926,1.869 -3.678,3.847 -4.675,6.387 1.398,0.181 2.804,0.318 4.19,0.564 0.526,0.093 0.769,-0.06 1.009,-0.463 C -2.379,5.686 -0.952,2.956 0,0"
             style="fill:#e4aa2f;fill-opacity:1;fill-rule:evenodd;stroke:none"
             id="path92" /></g><g
           id="g94"
           transform="translate(196.4878,506.8325)"><path
             d="m 0,0 c 1.858,-0.768 3.691,-1.605 5.581,-2.287 3.32,-1.198 6.683,-2.27 10.242,-2.519 C 15.424,-5.363 15.024,-5.92 14.626,-6.478 13.552,-7.981 13.559,-7.967 11.823,-7.151 7.631,-5.182 3.695,-2.791 0,0"
             style="fill:#e4aa2f;fill-opacity:1;fill-rule:evenodd;stroke:none"
             id="path96" /></g><g
           id="g98"
           transform="translate(364.8115,392.2734)"><path
             d="M 0,0 C 0.995,-2.821 1.643,-5.742 2.476,-8.61 2.612,-9.081 2.402,-9.364 1.937,-9.406 0.018,-9.579 -1.904,-9.732 -3.826,-9.891 c -0.195,-0.015 -0.375,0.037 -0.504,0.203 1.303,0.621 2.589,1.281 3.916,1.845 0.872,0.372 1.015,0.866 0.635,1.692 -0.476,1.03 -0.871,2.099 -1.3,3.151 0.637,0.427 0.528,1.135 0.675,1.752 0.1,0.424 0.267,0.833 0.404,1.248"
             style="fill:#c56d29;fill-opacity:1;fill-rule:evenodd;stroke:none"
             id="path100" /></g><g
           id="g102"
           transform="translate(384.3496,527.5098)"><path
             d="m 0,0 c -0.076,-0.076 -0.151,-0.152 -0.228,-0.229 -2.925,-2.309 -5.593,-4.919 -8.591,-7.151 -3,-2.233 -6.12,-4.272 -9.281,-6.258 -2.549,-1.601 -5.145,-3.122 -8.1,-4.486 0.98,1.663 1.877,3.124 2.718,4.619 3.557,6.321 6.962,12.709 8.442,19.915 0.286,1.391 0.449,2.79 0.33,4.198 -0.086,1.001 0.443,1.267 1.262,1.327 2.879,0.211 5.746,0.532 8.627,0.734 4.875,0.342 9.748,0.448 14.629,0.411 0.436,-0.004 1.061,0.243 1.269,-0.183 C 11.265,12.512 10.76,12.111 10.492,11.759 7.771,8.17 4.831,4.774 1.563,1.667 1.013,1.143 0.521,0.557 0,0"
             style="fill:#2a2524;fill-opacity:1;fill-rule:evenodd;stroke:none"
             id="path104" /></g><g
           id="g106"
           transform="translate(295.5625,465.9917)"><path
             d="m 0,0 c -0.047,-3.047 -1.097,-6.338 -4.405,-8.096 -8.123,-4.316 -16.282,0.768 -17.008,8.688 -0.483,5.277 1.601,8.918 5.84,10.712 C -8.312,14.377 0.388,8.386 0,0"
             style="fill:#201613;fill-opacity:1;fill-rule:evenodd;stroke:none"
             id="path108" /></g><g
           id="g110"
           transform="translate(225.9019,468.853)"><path
             d="m 0,0 c -0.092,-2.903 -0.423,-5.706 -2.566,-7.976 -3.575,-3.785 -9.833,-3.089 -12.45,1.427 -2.411,4.163 -1.555,10.794 1.859,14.196 2.119,2.112 4.731,2.764 7.603,2.259 C -3.042,9.465 -1.822,7.53 -0.919,5.391 -0.198,3.68 0.031,1.857 0,0"
             style="fill:#201613;fill-opacity:1;fill-rule:evenodd;stroke:none"
             id="path112" /></g><g
           id="g114"
           transform="translate(237.5005,406.3496)"><path
             d="m 0,0 c 3.733,-1.046 7.548,-1.209 11.325,-1.158 3.047,0.041 6.104,0.028 9.149,0.191 1.136,0.061 2.273,0.184 3.416,0.198 0.611,0.009 0.932,-0.142 0.525,-0.768 -2.493,-3.826 -5.722,-6.816 -9.945,-8.649 -1.256,-0.544 -2.499,-0.212 -3.658,0.301 C 6.138,-7.808 2.674,-4.373 0,0"
             style="fill:#e4aa2f;fill-opacity:1;fill-rule:evenodd;stroke:none"
             id="path116" /></g><g
           id="g118"
           transform="translate(303.5098,362.9297)"><path
             d="m 0,0 c 0.979,2.029 2.291,3.861 3.47,5.769 1.687,2.727 3.258,5.518 4.775,8.338 1.537,2.859 3.029,5.741 4.542,8.612 0.178,0.337 0.333,0.773 0.76,0.774 0.489,0.001 0.648,-0.482 0.825,-0.852 0.748,-1.569 0.953,-3.277 1.252,-4.959 0.342,-1.931 0.182,-3.881 0.248,-5.825 C 15.923,10.37 15.3,9.223 14.339,8.168 12.141,5.752 9.374,4.145 6.54,2.637 5,1.818 3.579,0.732 1.801,0.418 2.264,1.727 3.376,2.541 4.258,3.504 7.271,6.791 12.563,15.524 13.672,19.075 10.515,12.6 6.763,6.064 1.269,0.697 0.933,0.368 0.692,-0.266 0,0"
             style="fill:#e4aa2f;fill-opacity:1;fill-rule:evenodd;stroke:none"
             id="path120" /></g><g
           id="g122"
           transform="translate(303.5098,362.9297)"><path
             d="m 0,0 c 2.69,2.299 4.985,4.951 6.944,7.887 2.524,3.785 4.895,7.661 6.649,11.881 0.082,0.198 0.23,0.371 0.366,0.583 0.41,-0.248 0.26,-0.537 0.177,-0.811 C 13.738,18.218 13.159,16.973 12.532,15.748 9.665,10.141 6.279,4.896 1.801,0.418 -2.048,-3.033 -6.048,-6.287 -10.51,-8.93 c -1.216,-0.72 -2.39,-1.558 -3.688,-2.087 -3.082,-1.254 -5.839,-2.901 -8.09,-5.409 -0.996,-1.108 -1.518,-0.992 -2.149,0.315 -0.544,1.131 -1.082,1.367 -2.214,0.709 -1.303,-0.758 -1.359,-0.662 -2.049,0.685 -0.053,0.102 -0.11,0.202 -0.161,0.305 -0.747,1.461 -0.761,1.507 -2.33,1.016 -0.966,-0.302 -1.576,-0.192 -1.697,0.925 -0.127,1.182 -0.619,1.775 -1.92,1.369 -0.897,-0.279 -1.282,0.185 -1.22,1.082 0.018,0.266 -0.036,0.541 0.007,0.802 0.167,0.989 -0.23,1.334 -1.229,1.379 -1.482,0.067 -1.688,0.376 -0.838,1.509 1.546,2.061 1.452,4.428 1.573,6.771 0.581,11.195 4.087,21.392 10.391,30.647 3.203,4.703 7.244,8.574 11.787,11.952 0.174,0.129 0.334,0.335 0.695,0.187 0.004,-0.52 -0.488,-0.696 -0.789,-0.946 -4.647,-3.857 -8.885,-8.094 -12.097,-13.247 -4.86,-7.794 -8.096,-16.169 -8.864,-25.399 -0.095,-1.143 -0.291,-2.279 -0.343,-3.422 -0.113,-2.473 0.102,-5.01 -2.103,-7.277 2.554,0.285 2.873,-0.995 2.655,-2.708 -0.072,-0.574 0.268,-0.552 0.723,-0.498 1.738,0.215 1.76,0.202 2.205,-1.523 0.16,-0.626 0.252,-1.011 1.109,-0.748 1.948,0.598 2.018,0.562 2.893,-1.328 0.424,-0.916 0.811,-1.129 1.754,-0.637 1.74,0.91 1.465,1.024 2.446,-0.727 0.654,-1.163 0.773,-1.247 1.654,-0.228 1.98,2.29 4.542,3.582 7.211,4.884 C -9.596,-7.851 -4.542,-4.273 0,0"
             style="fill:#221813;fill-opacity:1;fill-rule:evenodd;stroke:none"
             id="path124" /></g><g
           id="g126"
           transform="translate(286.4766,438.8418)"><path
             d="M 0,0 C -0.011,7.269 5.827,13.103 13.116,13.108 20.401,13.115 26.345,7.287 26.39,0.092 26.435,-7.122 20.44,-13.093 13.124,-13.04 5.458,-12.985 -0.276,-6.84 0,0"
             style="fill:#231813;fill-opacity:1;fill-rule:evenodd;stroke:none"
             id="path128" /></g><g
           id="g130"
           transform="translate(251.0859,438.8218)"><path
             d="m 0,0 c -1.265,-0.005 -2.376,0.507 -3.466,1.065 -1.971,1.009 -3.941,2.019 -5.888,3.071 -0.638,0.343 -1.187,0.348 -1.831,0.031 -1.848,-0.91 -3.729,-1.746 -5.651,-2.497 -1.647,-0.642 -3.047,-0.417 -4.333,0.762 -0.535,0.49 -1.107,0.939 -1.633,1.437 -0.228,0.214 -0.647,0.47 -0.314,0.84 0.349,0.389 0.597,-0.042 0.842,-0.244 0.735,-0.608 1.454,-1.236 2.197,-1.833 0.713,-0.571 1.493,-0.634 2.372,-0.363 2.126,0.656 4.121,1.614 6.1,2.601 0.939,0.469 1.74,0.49 2.68,-0.037 C -6.963,3.731 -4.927,2.761 -2.946,1.689 -1.057,0.667 0.79,0.482 2.675,1.695 3.604,2.293 4.581,2.818 5.537,3.376 5.777,3.516 6.054,3.65 6.25,3.375 6.397,3.169 6.248,2.966 6.072,2.784 5.148,1.828 1.204,0.01 0,0"
             style="fill:#241913;fill-opacity:1;fill-rule:evenodd;stroke:none"
             id="path132" /></g><g
           id="g134"
           transform="translate(241.6162,455.1416)"><path
             d="m 0,0 c 0.839,0 1.68,0.04 2.516,-0.012 0.716,-0.046 0.868,-0.459 0.389,-0.984 -0.864,-0.946 -1.941,-1.608 -3.138,-2.031 -0.669,-0.236 -3.141,1.483 -3.243,2.206 -0.086,0.608 0.387,0.811 0.846,0.84 0.874,0.053 1.753,0.015 2.63,0.015 z"
             style="fill:#211713;fill-opacity:1;fill-rule:evenodd;stroke:none"
             id="path136" /></g><g
           id="g138"
           transform="translate(281.2158,467.0903)"><path
             d="m 0,0 c -2.326,-0.012 -3.631,1.336 -3.632,3.752 0,2.513 1.907,4.493 4.361,4.527 2.019,0.029 3.64,-1.64 3.65,-3.751 C 4.389,1.783 2.678,0.013 0,0"
             style="fill:#fefefe;fill-opacity:1;fill-rule:evenodd;stroke:none"
             id="path140" /></g><g
           id="g142"
           transform="translate(223.0137,472.1724)"><path
             d="m 0,0 c 0.083,-1.097 -0.474,-1.922 -1.202,-2.62 -1.283,-1.229 -2.948,-0.984 -3.897,0.522 -0.869,1.379 -0.676,3.694 0.412,4.953 1.356,1.569 3.415,1.275 4.263,-0.618 C -0.107,1.529 -0.042,0.762 0,0"
             style="fill:#fefefe;fill-opacity:1;fill-rule:evenodd;stroke:none"
             id="path144" /></g><g
           id="g146"
           transform="translate(299.4922,426.6392)"><path
             d="m 0,0 c -6.617,-0.002 -12.493,5.349 -12.271,12.652 0.199,6.52 5.831,11.911 12.589,11.813 6.943,-0.101 12.3,-5.587 12.214,-12.507 C 12.449,5.279 6.831,-0.082 0,0"
             style="fill:#e84f24;fill-opacity:1;fill-rule:evenodd;stroke:none"
             id="path148" /></g></g></g></g></svg>
